<?xml version="1.0" encoding="utf-8"?>
<!DOCTYPE svg PUBLIC "-//W3C//DTD SVG 1.0//EN" "http://www.w3.org/TR/2001/REC-SVG-20010904/DTD/svg10.dtd">
<svg version="1.0" xmlns="http://www.w3.org/2000/svg" width="800px" height="800px" viewBox="0 0 800 800" preserveAspectRatio="xMidYMid meet">
 <g fill="#ffffff">
 </g>
 <g fill="#f7f7f7">
 </g>
 <g fill="#efefef">
 </g>
 <g fill="#e6e6e6">
 </g>
 <g fill="#dedede">
 </g>
 <g fill="#d6d6d6">
 </g>
 <g fill="#cecece">
 </g>
 <g fill="#c5c5c5">
 </g>
 <g fill="#bdbdbd">
 </g>
 <g fill="#b5b5b5">
 </g>
 <g fill="#adadad">
  <path d="M334.5 725 c-10.4 -2.4 -12.4 -3.2 -16.3 -6.5 -8.8 -7.4 -4.3 -22.9 7.3 -25.1 1.9 -0.3 3.5 -0.7 3.5 -0.8 0 -0.1 -1.7 -5.4 -3.9 -11.8 l-3.9 -11.5 3.7 0.8 c2 0.5 3.9 0.9 4.3 0.9 0.4 0 2.4 5.2 4.4 11.6 2 6.3 4.1 11.7 4.8 11.9 6.4 1.9 6.1 2.2 8.2 -8.3 1.8 -9 2.2 -9.7 4.4 -10 5.6 -0.5 5.6 -0.2 -0.1 26.2 -4.2 19.2 -5.7 24.6 -6.9 24.5 -0.8 0 -5.1 -0.9 -9.5 -1.9z m6.9 -14.9 c0.9 -4 1.4 -7.7 1.1 -8.1 -1 -1.6 -12.9 -3.2 -15.8 -2.1 -5.2 2 -7.2 11.8 -3 15.2 2.4 2 14.7 4.8 15.4 3.5 0.4 -0.6 1.4 -4.4 2.3 -8.5z"/>
  <path d="M458.4 724.9 c-3 -0.8 -9.4 -6.9 -9.4 -8.8 0 -0.5 1.8 -1.1 4.1 -1.5 3.4 -0.6 4.3 -0.3 5.9 1.6 1.5 1.8 2.8 2.3 6.8 2.3 6.4 0 9.2 -2.3 9.2 -7.5 0 -5.5 -2.1 -6.8 -12.7 -7.9 -13 -1.4 -17.4 -4.1 -18.9 -11.8 -2.5 -12.3 14.2 -22.3 27.3 -16.4 2.5 1.2 4.8 3.2 5.7 5 2.1 3.9 2.2 3.8 -2.1 4.6 -3.1 0.5 -4 0.3 -6 -1.9 -1.9 -2.1 -3.3 -2.6 -7.4 -2.6 -6.2 0 -9.9 3.1 -9.9 8.3 0 5.2 2.5 6.8 12.7 7.8 10.1 1.1 13.2 2.1 16.3 5.4 2.3 2.5 3.6 8.8 2.6 12.8 -0.7 3.1 -5.2 7.6 -9.1 9.2 -4.3 1.9 -11.5 2.5 -15.1 1.4z"/>
  <path d="M501 714.1 c-1.7 -3.2 -1.3 -3.7 4.6 -5.7 3.1 -1 5.9 -2.4 6.1 -3 0.2 -0.7 -3 -10.1 -7.1 -21 -4.2 -10.8 -7.6 -20 -7.6 -20.4 0 -0.9 5.9 -3.4 6.5 -2.8 0.2 0.2 3.6 8.7 7.5 18.9 3.9 10.1 7.5 19.4 8 20.6 l0.9 2.2 6.4 -2.4 6.4 -2.4 1.2 2.6 c0.6 1.4 1 2.7 0.9 2.9 -0.4 0.3 -31.9 12.4 -32.4 12.4 -0.2 0 -0.8 -0.9 -1.4 -1.9z"/>
  <path d="M278 708.9 c-6.9 -2.8 -12.5 -5.2 -12.6 -5.2 -0.1 -0.1 0.4 -1.4 1 -2.9 l1.1 -2.6 8.5 3.4 c4.6 1.9 8.9 3.4 9.5 3.4 1.1 0 7.1 -13.7 6.4 -14.5 -0.2 -0.2 -3.8 -1.7 -7.9 -3.3 -6.5 -2.6 -7.5 -3.3 -7.2 -5.3 0.1 -1.3 0.5 -2.5 0.7 -2.8 0.6 -0.5 4.9 0.8 12.1 3.7 l5.1 2.1 3 -7.9 3 -7.9 -9.3 -3.7 c-5.2 -2.1 -9.4 -4 -9.4 -4.3 0.1 -0.3 0.6 -1.6 1.3 -2.8 l1.2 -2.2 12.8 5.1 c7 2.7 12.7 5.4 12.5 5.8 -10 25.8 -18.4 47 -18.8 46.9 -0.3 0 -6.1 -2.3 -13 -5z"/>
  <path d="M391.7 711.5 c-4.9 -5 -3.6 -12.4 2.8 -15.1 9.4 -3.9 17.1 7.8 9.7 14.9 -3.8 3.6 -9 3.7 -12.5 0.2z"/>
  <path d="M236.5 688.5 c-6 -3.6 -11.4 -6.6 -11.9 -6.8 -0.5 -0.2 -0.1 -1.5 0.8 -2.9 l1.7 -2.7 5 3 c2.8 1.6 6.8 3.8 8.9 4.9 l3.8 2 3.6 -6.4 c2 -3.5 3.6 -6.9 3.6 -7.4 0 -0.5 -2.6 -2.3 -5.7 -4 -9.3 -5 -9.6 -5.3 -7.7 -8 l1.6 -2.3 7.5 4.2 c8.5 4.7 8.1 4.9 13.1 -4.3 l3.2 -5.8 -2.3 -1.4 c-1.2 -0.7 -4.9 -2.9 -8.1 -4.7 -6.6 -3.8 -7.2 -4.7 -5.3 -7.3 1.2 -1.7 2.1 -1.4 13.3 5 l12.1 6.8 -10 17.5 c-5.5 9.7 -11.2 19.7 -12.6 22.3 -1.4 2.6 -2.8 4.8 -3.1 4.7 -0.3 0 -5.4 -2.9 -11.5 -6.4z"/>
  <path d="M549 688.2 c-7.5 -4.1 -9.9 -14.7 -5 -21.5 2.6 -3.4 3.4 -2.6 -9.9 -9.9 l-9.4 -5.1 3.8 -2.3 c4.4 -2.6 3.6 -2.8 17.3 5.2 l7.6 4.5 3.2 -1.7 3.3 -1.8 -3.1 -5.6 c-1.8 -3 -4.2 -7.1 -5.4 -9 l-2.2 -3.6 3 -1.7 c1.6 -0.9 3.3 -1.5 3.8 -1.2 1.1 0.7 25 41.9 25 43.1 0 0.5 -4.4 3.3 -9.6 6.3 -11.2 6.3 -16.8 7.4 -22.4 4.3z m17.4 -8.3 c2.8 -1.7 5.2 -3.2 5.4 -3.4 0.4 -0.4 -7.9 -14.4 -8.9 -15.1 -1.2 -0.7 -12.5 6.2 -13.3 8.2 -1.4 3.5 -0.6 8.2 1.9 10.8 3.4 3.7 8.3 3.5 14.9 -0.5z"/>
  <path d="M205.2 669 l-2.3 -1.9 13.6 -18.1 c7.5 -10 13.5 -18.3 13.3 -18.4 -0.1 -0.2 -3.3 -2.5 -7.1 -5.3 l-6.7 -5.1 1.9 -2.3 1.9 -2.3 9.7 7.3 c6.4 4.8 9.5 7.7 9.1 8.7 -1 2.6 -29.1 39.4 -30.1 39.4 -0.5 -0.1 -2 -0.9 -3.3 -2z"/>
  <path d="M593.7 656.6 c-13.3 -4.9 -21.4 -18 -18.7 -30.2 1.5 -6.6 3.3 -9.6 8.9 -14.6 11 -9.9 26 -9.2 36.1 1.8 5.3 5.8 7.3 10.5 7.3 17.5 0.1 13.5 -10.6 25 -24.5 26.4 -3.3 0.3 -6.7 0 -9.1 -0.9z m13.4 -6.8 c10.1 -3.4 15.6 -14.6 11.9 -24.2 -1.4 -3.8 -8.1 -10.7 -11.7 -12.3 -4.2 -1.7 -11.7 -1.7 -15.1 0.1 -3.1 1.6 -7.4 6.1 -9.1 9.3 -3.2 6.2 0.1 18 6.5 23.1 6 4.8 11.6 6.1 17.5 4z"/>
  <path d="M174.8 641 c-11.3 -3.3 -18.7 -15.6 -14.6 -24.5 1.4 -3.1 1.9 -3.1 4.8 0 1.9 2 2.3 3.5 2.1 7 -0.2 3.9 0.2 4.9 2.7 7.5 4 4 9.1 4.2 12.1 0.4 1.2 -1.5 2.1 -3.2 2.1 -3.9 0 -0.6 -2 -5.3 -4.5 -10.4 -2.5 -5.1 -4.5 -10.6 -4.5 -12.2 0 -7.1 6.3 -12.9 14.2 -12.9 5.4 0 12 4 15.7 9.5 3.2 4.7 4 12.5 1.6 16.1 l-1.7 2.6 -2.8 -2.7 c-2.5 -2.4 -2.7 -3 -1.8 -5.6 2.9 -8.2 -7.9 -16.3 -15 -11.3 -3.4 2.4 -2.9 7.2 1.9 16.4 4.6 8.8 5.2 13.8 2.2 17.8 -4 5.4 -9.4 7.7 -14.5 6.2z"/>
  <path d="M632.5 603.8 c-9.9 -7.7 -19 -14.7 -20.2 -15.6 l-2.3 -1.7 2.4 -3 2.3 -2.9 8.8 6.7 c4.8 3.7 9 6.7 9.4 6.7 0.8 -0.1 14 -17.4 14.6 -19.2 0.2 -0.8 -3.1 -3.9 -8 -7.7 -4.7 -3.5 -8.5 -6.7 -8.5 -7.1 0 -0.4 0.9 -1.8 1.9 -3.1 2.4 -2.9 0 -4.3 23.9 14.1 l18.9 14.5 -2.1 2.7 c-1.1 1.5 -2.4 2.7 -2.7 2.7 -0.3 0.1 -3.2 -2 -6.5 -4.5 -3.2 -2.5 -7.1 -5.5 -8.6 -6.5 l-2.7 -2 -7.5 9.8 c-4.2 5.4 -7.6 10 -7.6 10.3 0 0.3 3.8 3.4 8.5 7 4.7 3.6 8.5 6.7 8.5 7 -0.1 0.3 -1.1 1.7 -2.3 3.1 l-2.2 2.6 -18 -13.9z"/>
  <path d="M136.9 571.1 c-3.8 -3.9 -3.9 -8 -0.1 -12.2 2.2 -2.5 3.6 -3.1 6.7 -3.1 4.9 0 9.5 4.5 9.5 9.3 0 4.5 -4.7 8.9 -9.5 8.9 -2.7 0 -4.4 -0.8 -6.6 -2.9z"/>
  <path d="M678.3 563.3 c-2.7 -0.5 -2.7 -0.3 -0.6 -4.8 1.2 -2.5 2.3 -3.5 4.1 -3.5 3.4 0 6 -1.7 7.7 -5 2.4 -4.6 1.9 -8.5 -1.2 -11 -3.9 -3 -6.7 -2 -14.3 5.5 -7.5 7.4 -12.3 9.8 -16.8 8.6 -7.1 -2.1 -11.2 -7.4 -11.2 -14.8 0.1 -7.4 6.5 -16.7 13.4 -19.3 2.4 -0.9 9.6 -0.5 9.6 0.6 0 0.2 -0.8 1.9 -1.7 3.9 -1.5 3.1 -2.1 3.5 -5.4 3.5 -5.1 0 -8.9 4.4 -8.9 10.4 0 5.2 2.2 7.6 7 7.6 2.7 0 4.6 -1.3 11.1 -7.4 9.2 -8.8 12.3 -9.9 18.8 -6.6 9.9 5 10.7 16.5 1.9 26.5 -4.4 5 -8.5 6.7 -13.5 5.8z"/>
  <path d="M99 527.9 c-7.5 -3.1 -13.3 -14.6 -11.5 -22.8 0.7 -3.3 5 -9.1 6.6 -9.1 0.6 0 1.7 1.6 2.5 3.5 1.3 3.2 1.3 3.8 -0.1 5.1 -5 5.1 -0.9 16.4 6.1 16.4 1.2 0 3.2 -0.9 4.5 -1.9 2.3 -1.9 2.4 -2.4 2.1 -12.8 -0.3 -10 -0.1 -11.2 2 -14.3 6.8 -10.2 19.5 -8.3 25.4 3.6 2.2 4.5 2.6 6.4 2.2 11.4 -0.3 4.9 -0.9 6.5 -3.3 9 -1.6 1.7 -3.2 3 -3.7 3 -0.4 0 -1.5 -1.6 -2.3 -3.6 -1.4 -3.5 -1.4 -3.8 0.4 -5 4.1 -2.9 3.1 -12.4 -1.7 -16 -3 -2.3 -7.8 -1.7 -10.2 1.4 -2 2.5 -2.2 3.4 -1.6 12.2 0.6 8 0.4 10 -1.1 12.9 -3.2 6.1 -10.7 9.3 -16.3 7z"/>
  <path d="M689.8 487.5 c-5.7 -3.2 -6.5 -9.9 -1.9 -14.6 4.9 -4.9 12.9 -3 15 3.4 2.7 8 -5.9 15.2 -13.1 11.2z"/>
  <path d="M75.1 466 c-2.8 -14.4 -3.2 -17.3 -2 -18.1 3.3 -2.1 4.5 -1 5.7 5.2 0.6 3.4 1.4 6.4 1.6 6.7 0.3 0.3 9.9 -1.4 21.3 -3.7 11.5 -2.2 21.3 -4.1 21.9 -4.1 1.2 0 2.8 5.9 1.9 6.8 -0.2 0.3 -9.9 2.4 -21.5 4.7 -11.6 2.3 -21.3 4.5 -21.6 4.8 -0.3 0.3 0 3.3 0.7 6.6 0.6 3.4 1 6.3 0.8 6.5 -0.2 0.3 -1.5 0.7 -2.9 1.1 l-2.6 0.6 -3.3 -17.1z"/>
  <path d="M678.9 435.6 c-0.4 -0.4 1 -24.8 1.5 -25.3 0.3 -0.3 41.8 2.6 47.1 3.3 4 0.4 4.1 0.5 3.7 3.9 -0.4 3.5 -0.4 3.5 -5.6 3.4 -2.8 0 -12.7 -0.6 -22.1 -1.3 -9.3 -0.7 -17.2 -1.2 -17.4 -1 -0.3 0.3 -0.7 4.2 -0.9 8.9 -0.4 8.5 -0.5 8.5 -3.2 8.5 -1.4 0 -2.9 -0.2 -3.1 -0.4z"/>
  <path d="M82.2 429.4 c-9.3 -4.6 -14.1 -12.7 -14.2 -23.4 0 -15.4 10.6 -25.9 26.1 -26 15.1 0 25.8 10.8 25.9 26.1 0 15.1 -10.8 25.8 -26.1 25.9 -5 0 -7.7 -0.6 -11.7 -2.6z m21.8 -7.6 c10.6 -5.4 13 -19.1 4.9 -28.3 -3.9 -4.4 -8.4 -5.8 -16.9 -5.3 -5.5 0.3 -7.4 0.9 -10.4 3.1 -4 3.1 -6.1 6.6 -7.1 11.8 -1.4 7.4 3.4 16.6 10 19.5 4.9 2.2 14.4 1.8 19.5 -0.8z"/>
  <path d="M680.8 396 c-0.4 -4 -0.3 -4 4.9 -6.2 l5.3 -2.2 -0.5 -4.5 c-0.2 -2.5 -0.7 -7.6 -1.1 -11.3 l-0.5 -6.7 -5.4 -1.5 c-5.1 -1.6 -5.3 -1.7 -5.7 -5.6 -0.2 -2.8 0 -3.9 0.8 -3.6 0.6 0.2 12.4 3.5 26.2 7.2 26.9 7.2 26.2 6.8 26.2 13.5 0 2.4 -1.6 3.3 -24.2 13.4 -13.4 6 -24.6 11 -24.9 11.2 -0.4 0.1 -0.9 -1.5 -1.1 -3.7z m39.4 -21.8 c0.6 -0.6 -21.9 -7.3 -24.3 -7.2 -0.6 0 -0.4 4.9 0.7 13.7 l0.5 4.2 11.2 -5 c6.2 -2.8 11.5 -5.3 11.9 -5.7z"/>
  <path d="M94.8 365.6 c-13.1 -2.3 -24 -4.4 -24.2 -4.7 -0.8 -0.7 3.3 -20.8 4.8 -23.7 2.1 -4.1 7 -8 11 -8.8 6.8 -1.2 16.6 5.7 16.6 11.8 0 0.9 0.4 1.9 0.9 2.2 0.5 0.3 5.9 -1.4 12 -3.8 l11.1 -4.4 -0.6 4.2 c-0.4 2.2 -0.9 4.4 -1.3 4.7 -0.3 0.3 -5.3 2.3 -11.1 4.4 -5.8 2.1 -10.8 4.3 -11.2 4.9 -0.4 0.6 -0.8 2.3 -0.8 3.7 0 2.6 0.3 2.7 10.1 4.5 l10.1 1.7 -0.6 3 c-0.3 1.6 -0.6 3.3 -0.6 3.8 0 1.1 1.4 1.3 -26.2 -3.5z m2 -14.3 c1.2 -8.6 -0.1 -12.5 -4.8 -14.2 -4.7 -1.6 -6.6 -1.4 -9.5 1.2 -2 1.7 -2.8 3.8 -3.7 9 -0.6 3.7 -0.9 6.9 -0.7 7.2 0.4 0.3 8.4 1.9 17 3.4 0.4 0.1 1.1 -2.9 1.7 -6.6z"/>
  <path d="M674.3 341.6 l-1 -4.5 8.4 -8.3 c8 -7.9 8.4 -8.4 7.8 -11.8 -0.4 -1.9 -0.8 -3.6 -1 -3.8 -0.2 -0.2 -4.7 0.8 -10 2.3 -5.4 1.4 -9.8 2.5 -10 2.3 -0.1 -0.2 -0.7 -1.8 -1.3 -3.6 -0.9 -2.5 -0.8 -3.4 0.1 -3.7 0.7 -0.2 11.7 -3.2 24.6 -6.5 18.1 -4.8 23.6 -5.9 24.2 -4.9 1.5 2.6 4.9 18 4.9 22.6 0 13.9 -15.5 19.8 -25.2 9.7 l-3.5 -3.5 -8.5 9.1 -8.4 9.1 -1.1 -4.5z m38.3 -15.7 c1.5 -1.4 2.4 -3.4 2.4 -5.1 0 -3.4 -2 -11.9 -3 -13.1 -0.6 -0.6 -16.8 2.7 -17.7 3.7 -0.1 0.1 0.7 3.2 1.8 6.9 2.4 8.1 5.6 11.2 10.8 10.3 1.9 -0.3 4.4 -1.5 5.7 -2.7z"/>
  <path d="M105.7 315.7 l-23.9 -7.2 0.6 -3.4 c0.3 -1.8 0.7 -3.5 1 -3.8 0.3 -0.3 42 11.9 48.3 14.2 0.9 0.3 0.9 1.3 0.1 3.9 -0.6 2 -1.4 3.6 -1.7 3.5 -0.3 0 -11.3 -3.3 -24.4 -7.2z"/>
  <path d="M112.6 294.2 c-12.5 -5.4 -22.9 -10 -23 -10.3 0 -0.3 2.2 -6 4.9 -12.8 4.8 -11.6 5.1 -12.1 7.5 -11.6 1.4 0.4 2.7 0.8 2.9 1.1 0.2 0.2 -1.2 4.3 -3.3 9.2 -2 4.8 -3.6 9 -3.6 9.4 0 0.3 1.7 1.3 3.8 2.1 2 0.9 5.3 2.2 7.3 3.1 l3.6 1.5 3.4 -8.3 c3.3 -8.3 3.4 -8.3 6.2 -7.4 3.2 1.2 3.1 1.4 -1.4 11.5 l-2.8 6.4 5.6 2.5 c9.5 4.1 10.1 4.1 11.8 0 6.1 -14.6 6.2 -14.7 9 -13.4 1.7 0.8 2.4 1.7 2 2.7 -2.5 6.8 -10.1 24.1 -10.5 24 -0.3 0 -10.8 -4.4 -23.4 -9.7z"/>
  <path d="M660.1 295.8 c-0.6 -1.7 -1 -3.2 -0.9 -3.4 0.6 -0.5 45.9 -18.4 46.7 -18.4 0.8 0 3.4 6 2.9 6.6 -0.6 0.5 -45.9 18.4 -46.7 18.4 -0.5 0 -1.4 -1.4 -2 -3.2z"/>
  <path d="M645.2 263.8 c-1.9 -3.5 -2 -4.4 -0.9 -5.7 0.8 -0.9 7.4 -8.8 14.7 -17.6 7.3 -8.8 14.7 -17.5 16.3 -19.2 l3 -3.3 1.9 3 c1 1.7 1.8 3.2 1.8 3.5 0 0.2 -6.8 8.1 -15.1 17.6 -8.2 9.4 -14.8 17.3 -14.7 17.5 0.2 0.2 10.5 -1.4 23 -3.5 l22.5 -3.7 1.8 3.3 c1 1.8 1.6 3.5 1.4 3.7 -0.2 0.1 -11.6 2 -25.4 4 -13.7 2 -25.7 3.9 -26.5 4.1 -1 0.3 -2.3 -1 -3.8 -3.7z"/>
  <path d="M142.2 262.1 c-1 -0.6 -0.9 -1.4 0.5 -3.9 1.5 -2.7 2.4 -3.2 5.4 -3.2 4.6 0 8.5 -3 9.8 -7.6 1.7 -6.1 -1.2 -10.4 -6.9 -10.4 -3.1 0 -4.8 1 -10.4 5.9 -7.7 6.8 -11.3 8.6 -15.8 7.7 -7.6 -1.4 -12.3 -9.1 -10.6 -17 1 -4.7 5.1 -11 8.9 -13.9 3 -2.2 10.7 -3.3 12.8 -1.8 2.1 1.4 -2.2 8.1 -4.8 7.4 -5.2 -1.4 -12.2 7 -10.3 12.5 1.1 3.4 5 5.7 8.4 4.9 1.4 -0.4 5.3 -3.1 8.7 -6.1 3.3 -3.1 7 -6 8.2 -6.7 3.1 -1.6 8.1 -1.4 11.8 0.5 10.5 5.5 8.9 22.4 -2.8 30.3 -3.5 2.3 -10.3 3.1 -12.9 1.4z"/>
  <path d="M623.4 205 c-3.1 -1.2 -6.4 -5.9 -6.4 -9.1 0 -1.5 1.2 -4.1 2.6 -5.8 6.4 -7.6 19 -0.2 15.5 9.1 -1.7 4.4 -7.8 7.4 -11.7 5.8z"/>
  <path d="M176.2 197.5 c-4.7 -2 -6.8 -7.2 -4.8 -11.9 3.9 -9.3 17.6 -6.6 17.6 3.4 0 3.6 -3.5 9 -5.9 9 -0.5 0 -1.5 0.2 -2.3 0.5 -0.7 0.2 -2.8 -0.2 -4.6 -1z"/>
  <path d="M215.5 156.6 c-7.7 -11.2 -14 -20.9 -14 -21.4 0 -0.6 4.9 -4.5 10.9 -8.6 l10.9 -7.5 1.8 2.2 c1.7 2.1 1.7 2.2 -0.4 4 -1.2 0.9 -4.8 3.4 -7.9 5.5 -3.2 2 -5.8 4.1 -5.8 4.6 0 2.2 8.3 13.5 9.4 12.9 0.6 -0.4 4 -2.7 7.5 -5.2 l6.3 -4.4 1.8 2.3 1.8 2.4 -6.1 4.4 c-3.4 2.4 -6.8 4.7 -7.6 5.2 -1.1 0.6 -0.5 2.1 3.3 7.4 2.6 3.6 5.1 6.6 5.5 6.6 0.5 0 4.3 -2.3 8.5 -5.2 6.3 -4.3 7.8 -4.9 9.1 -3.8 0.8 0.7 1.5 1.8 1.5 2.5 0 0.9 -19.3 15.2 -22 16.2 -0.3 0.1 -6.8 -8.9 -14.5 -20.1z"/>
  <path d="M564.4 173.8 c-7.8 -5.2 -11.8 -15.2 -8.1 -20.1 1.1 -1.6 1.4 -1.6 4.2 0.3 2.5 1.6 2.9 2.5 2.7 5.7 -0.4 5 2.5 8.8 7.9 10.4 3.5 1.1 4.3 1 6.7 -0.8 3 -2.2 4 -6.9 2.2 -10.2 -0.6 -1.1 -3.3 -5 -6 -8.6 -4.2 -5.6 -5 -7.3 -5 -11 0 -4.9 3.1 -9.5 8.3 -12.1 8.9 -4.7 24.7 6.2 24.7 17 0 6.3 -1.1 7.3 -4.9 4.7 -2.4 -1.8 -3.1 -3 -3.1 -5.7 0 -7.4 -10.2 -13.2 -14.9 -8.5 -3.4 3.4 -2.8 8.1 1.9 14 6 7.6 8 11.3 8 14.9 0 7.8 -6 13.2 -14.6 13.2 -4.2 0 -6.1 -0.6 -10 -3.2z"/>
  <path d="M535.5 154.3 l-3.1 -1.5 -2.8 -21.1 c-1.6 -11.7 -3.2 -22.1 -3.6 -23.2 -0.5 -1.5 -2.5 1.7 -8.4 13.9 -4.2 8.8 -7.6 16.3 -7.6 16.7 0 1.6 -1.8 1.9 -4.9 0.8 -1.7 -0.6 -3.1 -1.2 -3.1 -1.4 0 -0.8 4.4 -10.2 12.8 -27.7 l9.1 -18.8 3.3 1.4 c1.9 0.8 3.5 2.4 3.9 3.8 0.3 1.2 1.9 11.6 3.4 23.1 1.6 11.4 3.2 20.7 3.5 20.7 0.3 0 4.2 -7.4 8.5 -16.5 4.3 -9.1 8.2 -16.8 8.6 -17.1 0.5 -0.3 2.2 0.2 3.8 1 l3 1.6 -11 22.7 c-6 12.6 -11.3 22.9 -11.7 23 -0.4 0.1 -2.1 -0.5 -3.7 -1.4z"/>
  <path d="M252.7 132.2 c-5.3 -12 -9.9 -22.6 -10.3 -23.5 -0.5 -1.3 0.3 -2.1 3.1 -3.3 3.4 -1.4 3.9 -1.4 5.8 0.3 1.2 1 8.5 7.5 16.3 14.6 7.8 7 14.5 12.7 14.8 12.7 0.3 0 0.6 -9.9 0.6 -22 l0 -21.9 3 -1.6 c1.6 -0.8 3.5 -1.5 4.2 -1.5 0.7 0 3.7 5.3 6.5 11.8 2.8 6.4 7.4 16.8 10.2 22.9 l5 11.3 -3.1 1.6 c-1.7 0.9 -3.4 1.2 -3.8 0.7 -0.5 -0.4 -3.9 -7.8 -7.7 -16.3 l-6.8 -15.5 -0.3 19.8 -0.2 19.8 -2.7 1 c-2.3 0.8 -3.1 0.6 -5.7 -1.9 -10.8 -10 -25.9 -23.2 -26.2 -22.9 -0.2 0.2 2.8 7.4 6.6 16.1 3.9 8.7 7 16 7 16.2 0 0.3 -5.6 3.4 -6.2 3.4 -0.2 0 -4.7 -9.8 -10.1 -21.8z"/>
  <path d="M463.6 127 c-10.3 -4.1 -16.8 -13.4 -16.7 -24.1 0.1 -18.2 16.3 -30.5 33.6 -25.5 4.5 1.4 6.9 2.9 10.9 6.9 5.8 5.8 7.6 10.4 7.6 18.8 -0.1 17.9 -18.9 30.6 -35.4 23.9z m17.3 -6.5 c3.8 -1.9 7.7 -6.6 9.1 -11.1 1.9 -5.6 0.9 -15.3 -1.9 -19.3 -6 -8.4 -20.9 -9.5 -27.8 -2 -7.2 7.8 -7.5 22.9 -0.7 29.1 5.4 4.8 15.5 6.4 21.3 3.3z"/>
  <path d="M331.5 123.7 c-9.4 -4.5 -14.6 -11.9 -15.3 -22 -0.6 -7.8 1.3 -13.8 5.9 -19.1 16.4 -18.6 45.9 -7.4 45.9 17.4 -0.1 14.5 -10.1 24.8 -25 25.7 -5.3 0.3 -7.4 0 -11.5 -2z m21.2 -7.3 c5.4 -4 7.3 -8.1 7.3 -15.3 0 -7.8 -2.3 -13.5 -6.9 -17.4 -8 -6.7 -23 -3.7 -27.4 5.6 -3.2 6.7 -1.7 18.7 3.1 24.1 4 4.4 7.4 5.7 14.4 5.4 4.9 -0.3 7.5 -0.9 9.5 -2.4z"/>
  <path d="M425.7 121.3 c-1.5 -0.4 -1.7 -1.2 -1.2 -4.6 0.7 -5.2 4.5 -43.7 4.5 -45.4 0 -1.4 4.7 -1.8 6.7 -0.5 0.9 0.6 0.6 6.3 -1.2 24.2 -1.4 12.9 -2.5 24.3 -2.5 25.3 0 1.7 -2.2 2.1 -6.3 1z"/>
  <path d="M393 97.5 l0 -22.5 -6.9 0 -6.9 0 -0.4 -3 -0.5 -3 14.7 0 c8.1 0 16.2 -0.3 17.9 -0.6 3 -0.6 3.1 -0.6 3.1 3 l0 3.6 -6.8 0 -6.7 0 0.4 22.5 0.3 22.5 -4.1 0 -4.1 0 0 -22.5z"/>
 </g>
 <g fill="#a5a5a5">
 </g>
 <g fill="#9c9c9c">
 </g>
 <g fill="#949494">
 </g>
 <g fill="#8c8c8c">
 </g>
 <g fill="#848484">
 </g>
 <g fill="#7b7b7b">
 </g>
 <g fill="#737373">
 </g>
 <g fill="#6b6b6b">
 </g>
 <g fill="#636363">
 </g>
 <g fill="#5a5a5a">
 </g>
 <g fill="#525252">
 </g>
 <g fill="#4a4a4a">
 </g>
 <g fill="#424242">
 </g>
 <g fill="#3a3a3a">
 </g>
 <g fill="#313131">
 </g>
 <g fill="#292929">
 </g>
 <g fill="#212121">
 </g>
 <g fill="#191919">
 </g>
 <g fill="#101010">
 </g>
 <g fill="#080808">
 </g>
 <g fill="#000000">
 </g>
</svg>